# xmcd CD database file
#
# Track frame offsets:
#	150
#	23079
#	56463
#	85828
#	120955
#	159862
#	183334
#	230057
#	245557
#	260612
#	288198
#	318969
#
# Disc length: 4551 seconds
#
# Revision: 0
# Processed by: cddbd v1.5.2PL0 Copyright (c) Steve Scherf et al.
# Submitted via: CDex 1.70beta2
#
DISCID=9311c50c
DTITLE=Various Artist - Heartdrops: Vince Benedetti Meets Diana Krall 
DYEAR=1900
DGENRE=Jazz
TTITLE0=The News 
TTITLE1=Sunshine Express 
TTITLE2=Detroit Blues 
TTITLE3=Your Destiny 
TTITLE4=Who Are You 
TTITLE5=My Love 
TTITLE6=Evidence 
TTITLE7=Detroit Blues (Radio/Short Version)
TTITLE8=My Love (Radio/Short Version) 
TTITLE9=Fly me to the moon
TTITLE10=A case of you
TTITLE11=Just the way you are 
EXTD=
EXTT0=
EXTT1=
EXTT2=
EXTT3=
EXTT4=
EXTT5=
EXTT6=
EXTT7=
EXTT8=
EXTT9=
EXTT10=
EXTT11=
PLAYORDER=
